<?xml version="1.0" standalone="no"?>
<!DOCTYPE svg PUBLIC "-//W3C//DTD SVG 20010904//EN"
 "http://www.w3.org/TR/2001/REC-SVG-20010904/DTD/svg10.dtd">
<svg version="1.0" xmlns="http://www.w3.org/2000/svg"
 width="295.000000pt" height="379.000000pt" viewBox="0 0 295.000000 379.000000"
 preserveAspectRatio="xMidYMid meet">

<g transform="translate(0.000000,379.000000) scale(0.100000,-0.100000)"
fill="#000000" stroke="none">
<path d="M1355 3764 c-289 -39 -482 -113 -682 -262 -552 -412 -680 -1159 -298
-1738 180 -271 473 -468 820 -550 108 -25 386 -31 505 -10 276 48 518 175 721
376 187 186 292 380 351 645 31 142 30 369 -2 510 -43 194 -132 389 -232 510
-74 90 -113 132 -173 185 -240 212 -529 324 -860 335 -66 2 -133 2 -150 -1z
m223 -70 c12 -4 22 -14 22 -24 0 -13 16 -20 73 -30 306 -54 517 -154 676 -319
56 -57 112 -133 105 -140 -3 -3 -10 2 -15 11 -15 27 -173 177 -226 215 -132
95 -331 176 -508 208 -92 17 -411 24 -447 10 -10 -4 -24 -5 -31 -2 -17 6 -155
-26 -222 -52 -67 -26 -170 -76 -222 -107 -24 -14 -43 -22 -43 -17 0 10 150
103 214 132 139 64 293 99 481 111 61 4 112 8 115 8 3 1 15 -1 28 -4z m89 -20
c-3 -3 -12 -4 -19 -1 -8 3 -5 6 6 6 11 1 17 -2 13 -5z m118 -157 c117 -29 150
-40 225 -75 117 -56 265 -159 275 -193 6 -17 17 -23 37 -20 4 0 5 -6 1 -15 -4
-10 10 -32 39 -62 69 -72 181 -277 193 -352 5 -32 5 -33 -6 -10 -54 120 -76
163 -88 173 -11 9 -11 6 2 -13 28 -43 88 -212 102 -288 23 -121 -2 -412 -47
-547 -53 -159 -192 -375 -305 -475 -101 -88 -285 -185 -408 -214 -29 -7 -29
-7 -10 8 20 15 20 15 -2 16 -12 0 -33 -5 -46 -11 -18 -8 -30 -8 -43 0 -16 8
-16 10 -3 11 9 0 23 8 33 18 9 11 35 25 58 31 58 18 151 61 144 68 -3 3 -18 1
-33 -5 -58 -23 -191 -53 -286 -64 -74 -9 -124 -9 -211 0 -120 13 -278 52 -284
72 -4 11 -40 28 -74 35 -9 2 -26 13 -37 24 -12 12 -26 21 -31 21 -16 0 -22 3
-53 30 -198 166 -251 227 -322 366 -24 47 -51 117 -60 156 -22 100 -5 109 30
16 78 -206 168 -329 330 -450 109 -82 211 -131 352 -167 66 -18 232 -30 308
-22 67 6 64 7 -65 13 -140 7 -249 29 -331 68 -35 17 -38 20 -14 15 39 -7 25 3
-80 56 -44 23 -107 63 -140 89 -71 57 -140 128 -109 112 11 -6 27 -19 35 -28
54 -66 250 -169 387 -203 78 -21 146 -28 92 -11 -18 6 -20 8 -7 9 11 1 15 5
11 13 -5 7 -2 9 7 6 24 -9 249 10 313 26 33 9 66 22 75 29 9 7 40 24 69 37 28
13 52 27 52 32 0 4 7 8 16 8 41 0 202 139 260 225 30 44 73 150 89 219 12 49
12 63 1 84 -13 25 -13 25 -31 -24 -9 -27 -21 -60 -26 -73 l-10 -23 -26 26
c-33 33 -84 65 -122 76 -34 10 -34 11 -50 -84 -6 -33 -13 -62 -16 -64 -3 -3
-4 35 -2 84 2 86 1 89 -21 92 -25 4 -40 -21 -24 -41 7 -8 7 -28 -1 -62 -8 -37
-12 -43 -14 -25 -13 106 -14 110 -32 110 -27 0 -32 -11 -17 -35 33 -50 46
-127 45 -264 -1 -227 -15 -242 -20 -21 -4 194 -4 195 -34 249 -43 77 -129 140
-216 158 -27 5 -29 3 -29 -24 0 -41 -30 -215 -41 -233 -5 -9 -6 12 -3 50 3 36
1 85 -5 110 -9 40 -9 46 9 59 29 20 25 48 -10 66 -27 14 -32 14 -55 -1 -30
-20 -32 -48 -5 -67 17 -12 19 -19 10 -41 -5 -15 -10 -55 -11 -89 0 -75 -11
-55 -29 53 -18 112 -20 120 -30 120 -31 0 -125 -47 -164 -82 -77 -67 -89 -100
-95 -270 -3 -80 -9 -149 -12 -152 -6 -7 -23 309 -21 387 2 44 0 47 -23 47 -29
0 -43 -23 -27 -43 7 -8 8 -31 3 -62 l-7 -50 -12 53 c-7 29 -12 60 -12 67 0 42
-109 -8 -152 -70 l-32 -46 -14 47 c-7 26 -17 75 -21 108 l-8 61 -8 -43 c-9
-51 -12 -49 -30 15 l-13 48 -1 -58 c-1 -65 22 -187 45 -243 25 -61 7 -51 -21
11 -70 160 -74 341 -10 490 7 17 18 44 25 62 6 17 20 39 31 49 10 9 19 23 19
29 0 7 7 15 15 19 8 3 15 0 15 -7 0 -6 7 -1 16 11 8 12 12 27 9 32 -3 6 0 10
7 10 13 0 29 16 70 67 18 21 18 21 -7 10 -14 -7 -23 -17 -21 -23 4 -12 -29
-12 -41 0 -4 4 0 12 10 17 28 16 19 29 -10 14 -39 -20 -39 -12 -1 30 42 48
136 114 216 154 62 31 227 81 269 81 12 0 25 5 29 11 5 8 -8 10 -42 5 -27 -3
-73 -8 -103 -12 -38 -4 -52 -3 -47 5 22 35 -122 -14 -246 -84 -71 -40 -119
-61 -78 -35 10 6 11 10 3 10 -7 0 -22 -9 -33 -20 -11 -11 -24 -20 -30 -20 -5
0 -20 -12 -34 -27 -14 -15 -28 -24 -32 -20 -11 10 97 110 178 162 125 83 255
130 436 155 45 7 82 15 82 18 0 9 -161 -8 -235 -25 -132 -29 -264 -92 -396
-187 -79 -57 -201 -131 -211 -129 -4 2 -8 -2 -8 -9 0 -6 -2 -9 -5 -6 -24 24
146 209 269 291 221 149 532 220 781 177 66 -11 91 -13 83 -5 -9 9 -211 35
-275 35 -60 0 -91 13 -56 24 43 13 261 -4 358 -27z m92 17 c-3 -3 -12 -4 -19
-1 -8 3 -5 6 6 6 11 1 17 -2 13 -5z m40 -10 c-3 -3 -12 -4 -19 -1 -8 3 -5 6 6
6 11 1 17 -2 13 -5z m334 -191 c13 -16 12 -17 -3 -4 -17 13 -22 21 -14 21 2 0
10 -8 17 -17z m-1548 -938 c2 -71 1 -121 -3 -110 -17 46 -22 263 -5 243 1 -2
5 -61 8 -133z m1884 43 c-2 -13 -4 -5 -4 17 -1 22 1 32 4 23 2 -10 2 -28 0
-40z"/>
<path d="M2300 3173 c18 -24 35 -43 37 -43 7 0 -35 56 -54 71 -9 8 -2 -5 17
-28z"/>
<path d="M1436 2925 c-22 -8 -51 -22 -65 -33 -155 -115 -64 -357 135 -357 87
0 148 39 188 117 42 86 33 129 -43 206 -78 78 -134 96 -215 67z"/>
<path d="M939 2757 c-66 -83 -107 -255 -90 -377 5 -40 12 -75 15 -78 16 -15
19 16 8 79 -7 38 -12 88 -12 110 0 57 27 154 54 198 26 41 58 101 54 101 -2 0
-15 -15 -29 -33z"/>
<path d="M1020 2692 c-136 -68 -85 -272 68 -272 159 0 212 206 69 270 -53 24
-92 25 -137 2z"/>
<path d="M1867 2696 c-48 -18 -62 -29 -81 -70 -65 -137 97 -267 221 -177 48
34 67 77 60 130 -12 92 -111 150 -200 117z"/>
<path d="M811 2494 c0 -11 3 -14 6 -6 3 7 2 16 -1 19 -3 4 -6 -2 -5 -13z"/>
<path d="M1147 2363 c-4 -3 -7 -27 -6 -52 l0 -46 20 43 c18 41 18 62 0 62 -4
0 -11 -3 -14 -7z"/>
<path d="M1370 1680 c0 -6 7 -10 15 -10 8 0 15 2 15 4 0 2 -7 6 -15 10 -8 3
-15 1 -15 -4z"/>
</g>
</svg>
